<?xml version="1.0" encoding="iso-8859-1"?>
<!-- Generator: Adobe Illustrator 19.0.0, SVG Export Plug-In . SVG Version: 6.00 Build 0)  -->
<svg version="1.1" id="Capa_1" xmlns="http://www.w3.org/2000/svg" xmlns:xlink="http://www.w3.org/1999/xlink" x="0px" y="0px"
	 viewBox="0 0 490 490" style="enable-background:new 0 0 490 490;" xml:space="preserve">
<g>
	<g>
		<path d="M440.141,0h-390.1c-7.8,0-22.8,6-20.8,26.6v442.6c0,11.4,9.4,20.8,20.8,20.8h390.1c10.4,0,19.8-9.4,20.8-20.8V20.8
			C460.941,9.4,451.641,0,440.141,0z M395.441,41.6l-150.9,172.7L93.641,41.6H395.441z M69.841,449.4V76.2l159.1,182.8
			c12,13.4,27.9,5.1,31.2,0l159.2-183v373.4H69.841z"/>
		<path d="M187.341,383.9h-75.9c-11.4,0-20.8,9.4-20.8,20.8s9.4,20.8,20.8,20.8h75.9c11.4,0,20.8-9.4,20.8-20.8
			S198.841,383.9,187.341,383.9z"/>
		<path d="M187.341,319.4h-75.9c-11.4,0-20.8,9.4-20.8,20.8s9.4,20.8,20.8,20.8h75.9c11.4,0,20.8-9.4,20.8-20.8
			S198.841,319.4,187.341,319.4z"/>
	</g>
</g>
<g>
</g>
<g>
</g>
<g>
</g>
<g>
</g>
<g>
</g>
<g>
</g>
<g>
</g>
<g>
</g>
<g>
</g>
<g>
</g>
<g>
</g>
<g>
</g>
<g>
</g>
<g>
</g>
<g>
</g>
</svg>
