<?xml version="1.0" encoding="iso-8859-1"?>
<!-- Generator: Adobe Illustrator 18.0.0, SVG Export Plug-In . SVG Version: 6.00 Build 0)  -->
<!DOCTYPE svg PUBLIC "-//W3C//DTD SVG 1.1//EN" "http://www.w3.org/Graphics/SVG/1.1/DTD/svg11.dtd">
<svg version="1.1" id="Capa_1" xmlns="http://www.w3.org/2000/svg" xmlns:xlink="http://www.w3.org/1999/xlink" x="0px" y="0px"
	 viewBox="0 0 480 480" style="enable-background:new 0 0 480 480;" xml:space="preserve">
<g>
	<path d="M464.542,199.369c-0.118-0.238-12.006-24.095-26.384-49.426c-29.969-52.797-41.544-60.666-45.344-63.249
		c-19.189-13.057-50.928-27.118-60-31.035l-26.93-34.925l0.02-0.15l-2.712-3.336C300.851,14.368,286.802,0,239.999,0
		s-60.852,14.368-63.192,17.249l-2.712,3.336l0.02,0.15l-26.928,34.924c-9.07,3.916-40.813,17.978-59.998,31.032
		c-3.805,2.586-15.38,10.454-45.348,63.252c-14.378,25.331-26.266,49.188-26.384,49.426l-1.925,3.87l1.499,4.054
		c0.595,1.606,15.3,39.446,79.926,48.052l5.803,0.773l19.952-26.574c6.302,86.51-8.781,183.257-20.44,226.036l-2.404,8.824
		l8.574,3.181C107.808,468.09,141.044,480,239.999,480c98.961,0,132.197-11.91,133.563-12.417l8.575-3.182l-2.406-8.824
		c-9.392-34.45-20.207-101.227-21.759-166.433c-0.435-18.266-0.208-38.653,1.333-59.58l19.94,26.552l5.802-0.773
		c64.621-8.606,79.325-46.446,79.92-48.052l1.5-4.054L464.542,199.369z M316.01,66.621l-9.537,69.696L274.43,96.15
		c13.879-13.533,21.862-33.908,26.229-49.438L316.01,66.621z M239.999,20c25.985,0,38.976,4.884,44.52,7.903
		c-3.243,16.376-15.046,62.751-44.52,62.751c-14.354,0-26.26-10.807-35.391-32.122c-5.07-11.837-7.864-23.891-9.175-30.69
		C200.804,24.956,213.851,20,239.999,20z M179.339,46.712c4.367,15.53,12.351,35.905,26.229,49.437l-32.043,40.167l-9.536-69.696
		L179.339,46.712z M91.87,234.648c-37.112-6.366-51.573-23.433-56.24-30.89c15.25-30.181,39.729-74.233,55.163-92.923
		c12.883,23.144,21.891,53.128,26.877,89.449L91.87,234.648z M139.417,213.758c-4.841-47.664-15.883-86.503-32.859-115.654
		c12.61-7.474,28.265-14.947,38.849-19.764l14.632,106.95l62.234-78.01c2.453,0.989,5.026,1.781,7.727,2.348v350.325
		c-56.086-0.497-91.243-5.105-107.957-8.787C134.246,400.59,148.208,300.309,139.417,213.758z M357.969,451.16
		c-16.753,3.692-51.907,8.297-107.97,8.793V109.629c2.699-0.567,5.273-1.358,7.727-2.348l62.233,78.01l14.634-106.95
		c10.59,4.819,26.257,12.299,38.872,19.778c-31.61,54.382-36.87,133.355-35.486,191.501
		C339.62,358.561,350.374,419.536,357.969,451.16z M388.135,234.648l-25.771-34.315c4.419-32.157,12.594-63.855,26.848-89.49
		c15.433,18.691,39.908,62.738,55.157,92.916C439.704,211.216,425.243,228.282,388.135,234.648z"/>
	<rect x="164.278" y="222.651" width="44.267" height="20"/>
	<path d="M279.997,220c-5.955,0-10.785,4.83-10.785,10.788c0,5.958,4.83,10.788,10.785,10.788c5.961,0,10.791-4.83,10.791-10.788
		C290.788,224.83,285.957,220,279.997,220z"/>
	<path d="M279.997,284.915c-5.955,0-10.785,4.829-10.785,10.785c0,5.955,4.83,10.79,10.785,10.79c5.961,0,10.791-4.835,10.791-10.79
		C290.788,289.744,285.957,284.915,279.997,284.915z"/>
	<path d="M279.997,349.826c-5.955,0-10.785,4.836-10.785,10.791s4.83,10.791,10.785,10.791c5.961,0,10.791-4.836,10.791-10.791
		S285.957,349.826,279.997,349.826z"/>
</g>
<g>
</g>
<g>
</g>
<g>
</g>
<g>
</g>
<g>
</g>
<g>
</g>
<g>
</g>
<g>
</g>
<g>
</g>
<g>
</g>
<g>
</g>
<g>
</g>
<g>
</g>
<g>
</g>
<g>
</g>
</svg>
