<?xml version="1.0" encoding="iso-8859-1"?>
<!-- Generator: Adobe Illustrator 19.0.0, SVG Export Plug-In . SVG Version: 6.00 Build 0)  -->
<svg version="1.1" id="Layer_1" xmlns="http://www.w3.org/2000/svg" xmlns:xlink="http://www.w3.org/1999/xlink" x="0px" y="0px"
	 viewBox="0 0 512 512" style="enable-background:new 0 0 512 512;" xml:space="preserve">
<g>
	<g>
		<path d="M192.24,375.118h-4.678c-5.77,0-10.449,4.678-10.449,10.449c0,5.771,4.679,10.449,10.449,10.449h4.678
			c5.77,0,10.449-4.678,10.449-10.449C202.689,379.796,198.01,375.118,192.24,375.118z"/>
	</g>
</g>
<g>
	<g>
		<path d="M153.758,375.118H52.267c-5.77,0-10.449,4.678-10.449,10.449c0,5.771,4.679,10.449,10.449,10.449h101.492
			c5.77,0,10.449-4.678,10.449-10.449C164.208,379.796,159.529,375.118,153.758,375.118z"/>
	</g>
</g>
<g>
	<g>
		<path d="M511.811,289.491L473.296,89.923l-0.48-2.489v-47.71c0-5.771-4.679-10.449-10.449-10.449H49.596
			c-5.77,0-10.449,4.678-10.449,10.449v47.9l-0.443,2.298L0.189,289.491C0.063,290.144,0,290.806,0,291.471v136.918v43.886
			c0,5.771,4.678,10.449,10.449,10.449H229.31c5.064,0,9.397-3.63,10.287-8.614l7.83-43.886c0-0.001,0-0.003,0.001-0.004
			L256,382.178l8.571,48.042c0.001,0.001,0.001,0.003,0.001,0.004l7.831,43.886c0.89,4.984,5.223,8.614,10.287,8.614h218.861
			c5.77,0,10.449-4.678,10.449-10.449V428.39V291.471C512,290.806,511.937,290.144,511.811,289.491z M487.698,275.007
			c-27.153-12.345-45.786-32.584-57.952-62.605c-12.17-30.031-17.005-67.248-19.923-113.331h43.955v0.001L487.698,275.007z
			 M58.223,99.073h43.955c-2.918,46.083-7.753,83.299-19.923,113.331c-12.166,30.02-30.799,50.259-57.952,62.605L58.223,99.073z
			 M220.56,461.826H20.898v-22.988h203.763L220.56,461.826z M245.551,321.765l-17.16,96.174H20.898v-119.05
			c38.411-13.711,64.864-39.499,80.725-78.637c13.32-32.871,18.453-72.442,21.494-121.18h122.435V321.765z M60.045,78.176V50.173
			h391.873v28.002H60.045z M491.102,461.826H291.44l-4.101-22.988h203.763V461.826z M491.102,417.94H283.609l-17.16-96.174V99.073
			h122.435c3.041,48.738,8.173,88.307,21.494,121.18c15.86,39.138,42.313,64.926,80.725,78.637V417.94z"/>
	</g>
</g>
<g>
</g>
<g>
</g>
<g>
</g>
<g>
</g>
<g>
</g>
<g>
</g>
<g>
</g>
<g>
</g>
<g>
</g>
<g>
</g>
<g>
</g>
<g>
</g>
<g>
</g>
<g>
</g>
<g>
</g>
</svg>
