<?xml version="1.0" encoding="iso-8859-1"?>
<!-- Generator: Adobe Illustrator 19.0.0, SVG Export Plug-In . SVG Version: 6.00 Build 0)  -->
<svg version="1.1" id="Layer_1" xmlns="http://www.w3.org/2000/svg" xmlns:xlink="http://www.w3.org/1999/xlink" x="0px" y="0px"
	 viewBox="0 0 512 512" style="enable-background:new 0 0 512 512;" xml:space="preserve">
<g>
	<g>
		<path d="M426.489,58.181V16.568C426.489,7.432,419.057,0,409.921,0H102.079c-9.136,0-16.568,7.432-16.568,16.568v41.613
			C26.354,261.769,17.193,501.297,17.108,503.697c-0.078,2.174,0.732,4.286,2.242,5.852c1.51,1.567,3.593,2.451,5.769,2.451h461.762
			c2.176,0,4.258-0.884,5.769-2.45c1.511-1.566,2.321-3.678,2.243-5.852C494.807,501.297,485.646,261.769,426.489,58.181z
			 M430.211,136.747c-1.064,0.043-2.128,0.072-3.189,0.072c-40.024,0-73.056-30.5-77.081-69.478h62.498
			C418.972,90.174,424.877,113.44,430.211,136.747z M101.545,16.568c0-0.294,0.239-0.534,0.534-0.534h307.841
			c0.295,0,0.534,0.241,0.534,0.534v34.739h-308.91V16.568z M99.559,67.34h62.498c-4.024,38.978-37.056,69.478-77.081,69.478
			c-1.06,0-2.126-0.029-3.188-0.072C87.123,113.44,93.028,90.174,99.559,67.34z M33.507,495.967
			c1.826-36.683,11.089-188.994,44.742-343.377c2.236,0.158,4.488,0.262,6.729,0.262c48.871,0,89.101-37.679,93.181-85.512h26.071
			l-33.152,281.786c-0.517,4.396,2.627,8.381,7.025,8.899c0.318,0.037,0.634,0.056,0.947,0.056c4.008,0,7.472-3.003,7.951-7.081
			L220.373,67.34h27.611v368.234c0,4.427,3.589,8.017,8.017,8.017c4.427,0,8.017-3.589,8.017-8.017V67.34h27.611l33.372,283.659
			c0.48,4.079,3.943,7.081,7.952,7.081c0.312,0,0.628-0.019,0.947-0.056c4.397-0.517,7.542-4.501,7.025-8.899L307.771,67.34h26.071
			c4.08,47.833,44.31,85.512,93.181,85.512c2.24,0,4.493-0.104,6.729-0.262c33.653,154.383,42.916,306.693,44.742,343.377H33.507z"
			/>
	</g>
</g>
<g>
</g>
<g>
</g>
<g>
</g>
<g>
</g>
<g>
</g>
<g>
</g>
<g>
</g>
<g>
</g>
<g>
</g>
<g>
</g>
<g>
</g>
<g>
</g>
<g>
</g>
<g>
</g>
<g>
</g>
</svg>
