<?xml version="1.0" encoding="iso-8859-1"?>
<!-- Generator: Adobe Illustrator 12.0.1, SVG Export Plug-In . SVG Version: 6.00 Build 51448)  -->
<!DOCTYPE svg PUBLIC "-//W3C//DTD SVG 1.1//EN" "http://www.w3.org/Graphics/SVG/1.1/DTD/svg11.dtd" [
	<!ENTITY ns_svg "http://www.w3.org/2000/svg">
	<!ENTITY ns_xlink "http://www.w3.org/1999/xlink">
]>
<svg  version="1.1" id="&#xB808;&#xC774;&#xC5B4;_1" xmlns="&ns_svg;" xmlns:xlink="&ns_xlink;" width="339.544" height="97.26"
	 viewBox="0 0 339.544 97.26" style="overflow:visible;enable-background:new 0 0 339.544 97.26;" xml:space="preserve">
<g>
	<path style="fill:#0FA8E0;" d="M99.868,36.624c-1.334-1.362-3.028-2.047-5.088-2.047c-3.028,0-5.238,1.454-6.628,4.358
		c-2.969-3.488-7.027-5.23-12.171-5.23c-6.176,0-11.372,2.384-15.58,7.148c-4.206,4.765-6.309,10.578-6.309,17.435
		s2.103,12.668,6.309,17.435c4.208,4.766,9.404,7.147,15.58,7.147c5.144,0,9.202-1.742,12.171-5.232
		c1.39,2.908,3.6,4.359,6.628,4.359c2.06,0,3.754-0.681,5.088-2.048c1.331-1.362,1.996-3.034,1.996-5.012v-33.3
		C101.864,39.662,101.199,37.991,99.868,36.624 M85.109,66.545c-1.727,2.225-4.106,3.336-7.131,3.336
		c-3.03,0-5.405-1.111-7.13-3.336c-1.724-2.228-2.588-4.979-2.588-8.258c0-3.277,0.864-6.029,2.588-8.256
		c1.725-2.225,4.1-3.337,7.13-3.337c3.025,0,5.404,1.112,7.131,3.337c1.726,2.227,2.589,4.979,2.589,8.256
		C87.698,61.565,86.835,64.317,85.109,66.545"/>
	<path style="fill:#0FA8E0;" d="M117.905,79.949c-1.333,1.367-3.03,2.047-5.085,2.047c-2.061,0-3.757-0.68-5.088-2.047
		c-1.334-1.364-1.999-3.037-1.999-5.013V15.344c0-1.975,0.665-3.648,1.999-5.013c1.331-1.366,3.027-2.047,5.088-2.047
		c2.055,0,3.752,0.681,5.085,2.047c1.332,1.365,1.997,3.038,1.997,5.013v59.593C119.902,76.912,119.237,78.585,117.905,79.949"/>
	<path style="fill:#0FA8E0;" d="M164.842,40.853c-4.54-4.764-10.323-7.148-17.349-7.148c-7.024,0-12.758,2.354-17.208,7.061
		c-4.453,4.707-6.678,10.547-6.678,17.521c0,6.973,2.225,12.813,6.678,17.521c4.45,4.707,10.184,7.062,17.208,7.062
		c7.026,0,12.809-2.382,17.349-7.147c4.36-4.651,6.54-10.462,6.54-17.435C171.382,51.313,169.203,45.503,164.842,40.853
		 M154.625,66.545c-1.727,2.225-4.104,3.336-7.132,3.336c-3.029,0-5.404-1.111-7.128-3.336c-1.727-2.228-2.59-4.979-2.59-8.258
		c0-3.277,0.863-6.029,2.59-8.256c1.724-2.225,4.099-3.337,7.128-3.337c3.028,0,5.405,1.112,7.132,3.337
		c1.726,2.227,2.586,4.979,2.586,8.256C157.211,61.565,156.352,64.317,154.625,66.545"/>
	<path style="fill:#0FA8E0;" d="M46.249,35.354c5.004-6.458,7.509-10.809,7.509-13.048c0-5.18-3.26-7.77-9.781-7.77H9.584
		c-2.702,0-4.792,0.639-6.275,1.915c-1.481,1.279-2.223,2.937-2.223,4.979c0,2.045,0.742,3.705,2.223,4.982
		c1.483,1.277,3.573,1.915,6.275,1.915h23.621L2.964,67.4C0.988,69.957,0,72.223,0,74.203c0,5.68,3.756,8.521,11.265,8.521h35.477
		c5.668,0,8.5-2.379,8.5-7.137c0-4.756-2.832-7.135-8.5-7.135H20.654L46.249,35.354z"/>
	<path style="fill:#32B34A;" d="M216.824,28.195h-9.492v19.729h9.492c2.852,0,5.164-0.931,6.932-2.792s2.652-4.218,2.652-7.073
		c0-2.852-0.885-5.211-2.652-7.072S219.675,28.195,216.824,28.195"/>
	<path style="fill:#32B34A;" d="M264.18,46.75c-3.013,0-5.375,1.105-7.091,3.319c-1.715,2.215-2.574,4.95-2.574,8.21
		c0,3.261,0.859,5.998,2.574,8.214c1.716,2.211,4.078,3.317,7.091,3.317c3.009,0,5.375-1.106,7.092-3.317
		c1.718-2.216,2.575-4.953,2.575-8.214c0-3.26-0.857-5.995-2.575-8.21C269.555,47.854,267.189,46.75,264.18,46.75"/>
	<path style="fill:#32B34A;" d="M331.232,0H193.625c-4.592,0-8.313,3.722-8.313,8.313v80.634c0,4.591,3.722,8.313,8.313,8.313
		h108.631c-1.146-1.086-1.721-2.357-1.721-3.814c0-1.189,0.267-2.437,0.801-3.742l5.124-11.395l-14.168-35.376
		c-0.416-1.009-0.623-2.108-0.623-3.297c0-1.544,0.653-2.852,1.96-3.921c1.307-1.069,2.673-1.603,4.1-1.603
		c3.147,0,5.287,1.514,6.416,4.544l8.82,24.148l9.446-24.148c1.188-3.03,3.325-4.544,6.416-4.544c1.425,0,2.791,0.534,4.099,1.603
		c1.305,1.069,1.961,2.377,1.961,3.921c0,1.189-0.21,2.288-0.625,3.297l-20.984,50.958c-0.574,1.424-1.266,2.545-2.071,3.369h20.026
		c4.591,0,8.313-3.722,8.313-8.313V8.313C339.544,3.722,335.823,0,331.232,0 M234.039,54.252c-4.344,3.971-9.803,5.956-16.378,5.956
		h-10.329v15.261c0,2.297-0.652,4.08-1.955,5.35c-1.303,1.273-2.979,1.908-5.023,1.908c-2.049,0-3.724-0.635-5.026-1.908
		c-1.304-1.27-1.954-3.053-1.954-5.35V23.171c0-4.839,2.419-7.259,7.258-7.259h16.473c6.885,0,12.576,2.064,17.076,6.188
		c4.496,4.127,6.745,9.478,6.745,16.053C240.924,44.792,238.628,50.156,234.039,54.252 M287.937,74.838
		c0,1.966-0.662,3.628-1.985,4.984c-1.327,1.359-3.013,2.037-5.06,2.037c-3.013,0-5.211-1.442-6.593-4.336
		c-2.954,3.471-6.989,5.203-12.106,5.203c-6.142,0-11.309-2.367-15.493-7.108c-4.185-4.739-6.276-10.521-6.276-17.341
		c0-6.818,2.092-12.6,6.276-17.338c4.185-4.738,9.352-7.109,15.493-7.109c5.117,0,9.152,1.732,12.106,5.201
		c1.382-2.888,3.58-4.334,6.593-4.334c2.047,0,3.732,0.681,5.06,2.036c1.323,1.361,1.985,3.022,1.985,4.986V74.838z"/>
</g>
</svg>
